HIERARCHY
ROOT Hips
{
	OFFSET 0.000000 83.214638 0.000000
	CHANNELS 6 Xposition Yposition Zposition Xrotation Yrotation Zrotation
	JOINT Pelvis
	{
		OFFSET 0.000000 0.000000 0.000000
		CHANNELS 3 Xrotation Yrotation Zrotation
		JOINT LeftUpLeg
		{
			OFFSET 8.479700 -4.795502 -0.379100
			CHANNELS 3 Xrotation Yrotation Zrotation
			JOINT LeftLeg
			{
				OFFSET 0.024144 -32.555107 0.112900
				CHANNELS 3 Xrotation Yrotation Zrotation
				JOINT LeftFoot
				{
					OFFSET -0.024144 -32.638630 -3.012600
					CHANNELS 3 Xrotation Yrotation Zrotation
					JOINT LeftToeBase
					{
						OFFSET 0.970200 -13.225400 11.864200
						CHANNELS 3 Xrotation Yrotation Zrotation
						End Site
						{
							OFFSET 0.000000 12.319262 0.000000
						}
					}
					JOINT LFootTongue
					{
						OFFSET 1.142400 -1.059800 6.665200
						CHANNELS 3 Xrotation Yrotation Zrotation
						End Site
						{
							OFFSET 0.000000 12.319262 0.000000
						}
					}
				}
				JOINT LeftPantLeg
				{
					OFFSET 0.918482 -16.533964 -2.284700
					CHANNELS 3 Xrotation Yrotation Zrotation
					End Site
					{
						OFFSET 0.350399 24.744368 0.000000
					}
				}
			}
		}
		JOINT RightUpLeg
		{
			OFFSET -8.479700 -4.795502 -0.379100
			CHANNELS 3 Xrotation Yrotation Zrotation
			JOINT RightLeg
			{
				OFFSET -0.023144 -32.555092 0.112900
				CHANNELS 3 Xrotation Yrotation Zrotation
				JOINT RightFoot
				{
					OFFSET 0.023144 -32.638641 -3.012700
					CHANNELS 3 Xrotation Yrotation Zrotation
					JOINT RightToeBase
					{
						OFFSET -0.970200 -13.225400 11.864200
						CHANNELS 3 Xrotation Yrotation Zrotation
						End Site
						{
							OFFSET 0.000000 12.319244 0.000000
						}
					}
					JOINT RFootTongue
					{
						OFFSET -1.142200 -1.059800 6.665200
						CHANNELS 3 Xrotation Yrotation Zrotation
						End Site
						{
							OFFSET 0.000000 12.319243 0.000000
						}
					}
				}
				JOINT RightPantLeg
				{
					OFFSET -0.919482 -16.533978 -2.284800
					CHANNELS 3 Xrotation Yrotation Zrotation
					End Site
					{
						OFFSET -0.350400 24.744419 0.000000
					}
				}
			}
		}
	}
	JOINT Spine
	{
		OFFSET 0.000000 7.722000 1.166200
		CHANNELS 3 Xrotation Yrotation Zrotation
		JOINT Spine1
		{
			OFFSET 0.000000 12.024101 0.248800
			CHANNELS 3 Xrotation Yrotation Zrotation
			JOINT Spine2
			{
				OFFSET 0.000000 11.502998 -0.491200
				CHANNELS 3 Xrotation Yrotation Zrotation
				JOINT Neck
				{
					OFFSET 0.000000 18.430702 -3.123100
					CHANNELS 3 Xrotation Yrotation Zrotation
					JOINT Head
					{
						OFFSET 0.000000 9.051102 1.034000
						CHANNELS 3 Xrotation Yrotation Zrotation
						JOINT HairB
						{
							OFFSET 0.208400 24.786102 24.822300
							CHANNELS 3 Xrotation Yrotation Zrotation
							End Site
							{
								OFFSET 0.000000 32.263779 0.000000
							}
						}
						JOINT HairA
						{
							OFFSET -7.081100 24.428299 23.196600
							CHANNELS 3 Xrotation Yrotation Zrotation
							End Site
							{
								OFFSET 0.000000 32.263779 0.000000
							}
						}
						JOINT Hat
						{
							OFFSET 16.728800 15.048294 -15.439601
							CHANNELS 3 Xrotation Yrotation Zrotation
							End Site
							{
								OFFSET 0.000000 32.263779 0.000000
							}
						}
					}
				}
				JOINT LeftShoulder
				{
					OFFSET 6.197800 13.665199 -4.064700
					CHANNELS 3 Xrotation Yrotation Zrotation
					JOINT LeftArm
					{
						OFFSET 7.778100 -0.187103 -1.709300
						CHANNELS 3 Xrotation Yrotation Zrotation
						JOINT LeftForeArm
						{
							OFFSET 22.049376 0.000000 0.000000
							CHANNELS 3 Xrotation Yrotation Zrotation
							JOINT LeftHand
							{
								OFFSET 23.009392 0.000000 0.000000
								CHANNELS 3 Xrotation Yrotation Zrotation
								JOINT LeftHandThumb1
								{
									OFFSET 3.507191 -2.063065 3.133727
									CHANNELS 3 Xrotation Yrotation Zrotation
									JOINT LeftHandThumb2
									{
										OFFSET 3.101337 -1.790558 1.790558
										CHANNELS 3 Xrotation Yrotation Zrotation
										JOINT LeftHandThumb3
										{
											OFFSET 3.058640 -1.765907 1.765906
											CHANNELS 3 Xrotation Yrotation Zrotation
											End Site
											{
												OFFSET -0.415260 3.926476 -0.049563
											}
										}
									}
								}
								JOINT LeftHandIndex1
								{
									OFFSET 11.334419 -0.901459 3.706815
									CHANNELS 3 Xrotation Yrotation Zrotation
									JOINT LeftHandIndex2
									{
										OFFSET 3.283112 0.000000 0.000000
										CHANNELS 3 Xrotation Yrotation Zrotation
										JOINT LeftHandIndex3
										{
											OFFSET 3.323853 0.000000 0.000000
											CHANNELS 3 Xrotation Yrotation Zrotation
											End Site
											{
												OFFSET -1.135597 3.097809 0.402452
											}
										}
									}
								}
								JOINT LeftHandMiddle1
								{
									OFFSET 11.335861 0.000000 0.000000
									CHANNELS 3 Xrotation Yrotation Zrotation
									JOINT LeftHandMiddle2
									{
										OFFSET 3.410492 0.000000 0.000000
										CHANNELS 3 Xrotation Yrotation Zrotation
										JOINT LeftHandMiddle3
										{
											OFFSET 3.312172 0.000000 0.000000
											CHANNELS 3 Xrotation Yrotation Zrotation
											End Site
											{
												OFFSET -1.150200 3.080154 0.400270
											}
										}
									}
								}
								JOINT LeftHandRing1
								{
									OFFSET 11.514786 -0.013176 -3.003090
									CHANNELS 3 Xrotation Yrotation Zrotation
									JOINT LeftHandRing2
									{
										OFFSET 3.053307 0.000000 0.000000
										CHANNELS 3 Xrotation Yrotation Zrotation
										JOINT LeftHandRing3
										{
											OFFSET 3.295807 0.000000 0.000000
											CHANNELS 3 Xrotation Yrotation Zrotation
											End Site
											{
												OFFSET -1.281006 3.013344 0.375733
											}
										}
									}
								}
								JOINT LeftHandPinky1
								{
									OFFSET 10.518692 -0.960396 -5.730441
									CHANNELS 3 Xrotation Yrotation Zrotation
									JOINT LeftHandPinky2
									{
										OFFSET 2.861649 0.000000 0.000000
										CHANNELS 3 Xrotation Yrotation Zrotation
										JOINT LeftHandPinky3
										{
											OFFSET 2.863380 0.000000 0.000000
											CHANNELS 3 Xrotation Yrotation Zrotation
											End Site
											{
												OFFSET -0.843597 2.711159 0.369971
											}
										}
									}
								}
							}
							JOINT LSleeve
							{
								OFFSET 6.676277 -0.344902 -1.011730
								CHANNELS 3 Xrotation Yrotation Zrotation
								End Site
								{
									OFFSET 0.000000 14.885353 0.000000
								}
							}
						}
					}
				}
				JOINT RightShoulder
				{
					OFFSET -6.197800 13.665199 -4.064700
					CHANNELS 3 Xrotation Yrotation Zrotation
					JOINT RightArm
					{
						OFFSET -7.778100 -0.187103 -1.709300
						CHANNELS 3 Xrotation Yrotation Zrotation
						JOINT RightForeArm
						{
							OFFSET -22.049376 0.000000 0.000000
							CHANNELS 3 Xrotation Yrotation Zrotation
							JOINT RightHand
							{
								OFFSET -23.009392 0.000000 0.000000
								CHANNELS 3 Xrotation Yrotation Zrotation
								JOINT RightHandThumb1
								{
									OFFSET -3.507191 -2.063065 3.133727
									CHANNELS 3 Xrotation Yrotation Zrotation
									JOINT RightHandThumb2
									{
										OFFSET -3.101337 -1.790558 1.790558
										CHANNELS 3 Xrotation Yrotation Zrotation
										JOINT RightHandThumb3
										{
											OFFSET -3.058640 -1.765907 1.765906
											CHANNELS 3 Xrotation Yrotation Zrotation
											End Site
											{
												OFFSET 0.415260 3.926476 -0.049563
											}
										}
									}
								}
								JOINT RightHandIndex1
								{
									OFFSET -11.334419 -0.901459 3.706815
									CHANNELS 3 Xrotation Yrotation Zrotation
									JOINT RightHandIndex2
									{
										OFFSET -3.283112 0.000000 0.000000
										CHANNELS 3 Xrotation Yrotation Zrotation
										JOINT RightHandIndex3
										{
											OFFSET -3.323853 0.000000 0.000000
											CHANNELS 3 Xrotation Yrotation Zrotation
											End Site
											{
												OFFSET 1.135597 3.097809 0.402452
											}
										}
									}
								}
								JOINT RightHandMiddle1
								{
									OFFSET -11.335861 0.000000 0.000000
									CHANNELS 3 Xrotation Yrotation Zrotation
									JOINT RightHandMiddle2
									{
										OFFSET -3.410492 0.000000 0.000000
										CHANNELS 3 Xrotation Yrotation Zrotation
										JOINT RightHandMiddle3
										{
											OFFSET -3.312172 0.000000 0.000000
											CHANNELS 3 Xrotation Yrotation Zrotation
											End Site
											{
												OFFSET 1.150200 3.080154 0.400270
											}
										}
									}
								}
								JOINT RightHandRing1
								{
									OFFSET -11.514786 -0.013176 -3.003090
									CHANNELS 3 Xrotation Yrotation Zrotation
									JOINT RightHandRing2
									{
										OFFSET -3.053307 0.000000 0.000000
										CHANNELS 3 Xrotation Yrotation Zrotation
										JOINT RightHandRing3
										{
											OFFSET -3.295807 0.000000 0.000000
											CHANNELS 3 Xrotation Yrotation Zrotation
											End Site
											{
												OFFSET 1.281006 3.013344 0.375733
											}
										}
									}
								}
								JOINT RightHandPinky1
								{
									OFFSET -10.518692 -0.960396 -5.730441
									CHANNELS 3 Xrotation Yrotation Zrotation
									JOINT RightHandPinky2
									{
										OFFSET -2.861649 0.000000 0.000000
										CHANNELS 3 Xrotation Yrotation Zrotation
										JOINT RightHandPinky3
										{
											OFFSET -2.863380 0.000000 0.000000
											CHANNELS 3 Xrotation Yrotation Zrotation
											End Site
											{
												OFFSET 0.843597 2.711159 0.369971
											}
										}
									}
								}
							}
							JOINT RSleeve
							{
								OFFSET -6.676277 -0.344902 -1.011730
								CHANNELS 3 Xrotation Yrotation Zrotation
								End Site
								{
									OFFSET 0.000000 14.885353 0.000000
								}
							}
						}
					}
				}
				JOINT Backpack
				{
					OFFSET 0.000000 -2.471497 36.677502
					CHANNELS 3 Xrotation Yrotation Zrotation
					End Site
					{
						OFFSET 0.000000 20.427315 0.000000
					}
				}
				JOINT Hood
				{
					OFFSET 0.000000 18.754097 -10.431000
					CHANNELS 3 Xrotation Yrotation Zrotation
					JOINT Hood1
					{
						OFFSET 0.000000 -5.011002 -7.685901
						CHANNELS 3 Xrotation Yrotation Zrotation
						End Site
						{
							OFFSET 0.000000 9.175140 0.000000
						}
					}
				}
				JOINT LHoodieString
				{
					OFFSET 5.250500 16.397697 3.089900
					CHANNELS 3 Xrotation Yrotation Zrotation
					JOINT LHoodieString1
					{
						OFFSET 0.257700 -6.364304 3.694600
						CHANNELS 3 Xrotation Yrotation Zrotation
						JOINT LHoodieString2
						{
							OFFSET 0.000000 -9.643799 2.679100
							CHANNELS 3 Xrotation Yrotation Zrotation
							End Site
							{
								OFFSET 0.000000 10.009018 0.000000
							}
						}
					}
				}
				JOINT RHoodieString
				{
					OFFSET -5.250500 16.397697 3.089900
					CHANNELS 3 Xrotation Yrotation Zrotation
					JOINT RHoodieString1
					{
						OFFSET -0.257700 -6.364304 3.694600
						CHANNELS 3 Xrotation Yrotation Zrotation
						JOINT RHoodieString2
						{
							OFFSET 0.000000 -9.643799 2.679100
							CHANNELS 3 Xrotation Yrotation Zrotation
							End Site
							{
								OFFSET 0.000000 10.009018 0.000000
							}
						}
					}
				}
			}
			JOINT LBackpack_Strap
			{
				OFFSET 15.223200 -7.719803 -6.610900
				CHANNELS 3 Xrotation Yrotation Zrotation
				End Site
				{
					OFFSET 0.000000 16.040596 0.000000
				}
			}
			JOINT RBackpack_Strap
			{
				OFFSET -15.223000 -7.719803 -6.610900
				CHANNELS 3 Xrotation Yrotation Zrotation
				End Site
				{
					OFFSET 0.000000 16.040596 0.000000
				}
			}
		}
	}
	JOINT BoyFacialAnim_Joint
	{
		OFFSET 1.000000 -82.208099 -1.550900
		CHANNELS 3 Xrotation Yrotation Zrotation
		End Site
		{
			OFFSET 0.000000 30.012791 0.000000
		}
	}
}
MOTION
Frames: 4
Frame Time: 0.033333
-3.758031 59.870613 48.871952 0.718089 57.792628 0.989172 -0.000000 0.000001 0.000000 -51.854171 6.377786 26.795682 90.683459 -9.378517 2.010809 -38.414715 3.383737 -8.830241 0.000000 -0.000000 0.000000 0.000000 -0.000000 0.000000 -0.000001 0.000002 -0.000001 -55.520309 1.559491 -44.064197 63.028091 9.965354 -6.381649 -4.830026 0.971942 29.197297 0.000000 -0.000000 -0.000000 0.000000 -0.000000 -0.000000 -0.000001 -0.000004 0.000002 15.165593 2.752961 0.871334 4.054405 0.923957 1.647829 4.042330 0.975534 1.631187 6.280841 -8.927136 0.589099 2.582583 -49.675119 16.238064 0.000001 0.000000 -0.000000 0.000001 0.000000 -0.000000 0.000001 0.000000 -0.000000 0.505957 -2.949236 8.878607 22.445730 -84.450556 -1.431083 0.000323 -83.935307 0.000246 49.451714 41.361614 -1.591376 -9.901053 8.726606 -12.181014 8.664150 24.024834 3.688795 -0.000000 -0.000001 -0.000003 -0.408946 -7.595152 -3.495503 0.994448 3.569590 -31.125674 0.000001 -0.000001 -0.000002 0.001007 0.117877 -0.976819 0.688380 3.005847 -25.792751 -0.000000 -0.000001 0.000000 0.009342 0.359257 -2.978430 0.130047 1.334584 -11.130695 -0.000001 0.000001 -0.000002 1.793317 15.933569 -5.719736 0.008264 -3.510241 -5.023732 -0.000001 0.000002 0.000002 -0.000000 0.000001 -0.000002 0.016309 21.133077 13.312895 -54.407272 46.050133 45.934354 -0.000010 2.779124 0.000002 -27.501354 -24.214815 28.969995 -3.168566 2.531727 7.584454 13.919112 -26.318150 3.106969 0.000000 0.000002 0.000002 0.001043 -0.120966 0.992643 2.650798 -5.464973 51.725190 -0.000000 -0.000002 0.000002 0.251284 -1.855969 15.420206 2.696354 -5.500450 52.202190 0.000006 -0.000000 0.000001 1.829191 -5.453112 25.055874 2.600977 -5.425480 51.200454 -0.000000 -0.000001 0.000002 4.370501 -9.008772 31.706107 2.696365 -5.500456 52.202197 0.000000 -0.000001 0.000000 -0.000002 -0.000001 -0.000001 0.000002 0.000001 0.000000 0.000002 0.000001 0.000000 0.000002 0.000001 0.000000 0.000002 0.000001 0.000000 0.000002 0.000001 -0.000000 0.000002 0.000001 0.000000 0.000002 0.000001 0.000000 0.000002 0.000001 -0.000000 0.000002 0.000001 0.000000 -0.000000 0.000000 -0.000000 -0.000000 0.000000 -0.000000 -0.000000 0.000001 0.000000 
-4.201045 59.642456 49.628212 0.929026 57.842468 1.544466 0.000000 0.000000 0.000000 -51.951874 6.307847 27.171623 90.389139 -9.507173 1.971582 -37.834122 3.369732 -9.806786 -0.000000 -0.000000 -0.000000 -0.000000 -0.000000 -0.000000 0.000001 0.000001 0.000000 -56.604592 2.575921 -44.093922 65.436149 9.848165 -6.481389 -6.084184 0.805257 28.542744 -0.000000 0.000002 0.000000 -0.000000 0.000002 0.000000 0.000002 0.000002 -0.000000 15.205266 2.458087 0.473275 4.041832 0.845908 1.353412 4.032201 0.890112 1.337904 6.167026 -8.867760 0.451380 2.953614 -49.482494 16.716116 0.000001 0.000000 0.000000 0.000001 0.000000 0.000000 0.000001 0.000000 0.000000 0.763545 -4.649802 6.936426 20.578388 -84.288673 -7.593064 0.000050 -82.011352 0.000095 43.925100 39.255583 9.049362 -9.318128 8.881098 -12.165134 8.313059 23.359670 3.698633 0.000001 -0.000001 0.000002 -0.201241 -7.321790 -2.011101 0.887990 3.387370 -29.371173 -0.000001 0.000001 0.000000 0.001002 0.117862 -0.976821 0.664612 2.956204 -25.335586 0.000000 -0.000002 -0.000000 0.009336 0.359270 -2.978433 0.136967 1.369255 -11.423824 0.000001 0.000001 -0.000004 2.169471 16.408606 -6.882442 0.018670 -3.401874 -5.925183 0.000001 -0.000001 -0.000002 0.000004 -0.000001 0.000003 0.323904 19.910883 11.486243 -55.209194 49.906966 46.214928 0.000003 6.003222 0.000000 -23.914451 -22.568371 32.851748 -3.168570 2.531739 7.584471 14.497920 -26.510975 3.307462 0.000001 -0.000002 -0.000000 0.001048 -0.120959 0.992657 2.704893 -5.507043 52.291320 0.000001 0.000000 0.000005 0.102953 -1.194508 9.851621 2.696481 -5.500546 52.203484 -0.000002 0.000000 -0.000000 1.431565 -5.835297 16.393929 2.601085 -5.425577 51.201755 0.000003 -0.000000 0.000002 3.809770 -11.065543 20.981438 2.696488 -5.500558 52.203484 -0.000001 0.000001 -0.000001 0.000002 -0.000001 0.000001 0.000003 0.000002 -0.000001 0.000003 0.000002 -0.000001 0.000003 0.000002 -0.000001 0.000003 0.000002 -0.000001 0.000003 0.000002 -0.000002 0.000001 0.000001 0.000000 0.000003 0.000002 -0.000001 0.000003 0.000002 -0.000002 0.000001 0.000001 0.000000 0.000001 -0.000002 0.000000 0.000001 -0.000002 0.000000 0.000000 0.000000 0.000000 
-4.650943 59.394379 50.479744 1.115195 57.597879 2.053620 0.000000 0.000001 -0.000000 -51.912262 6.258799 27.743308 90.064486 -9.622045 2.025225 -37.304594 3.565719 -10.977400 0.000000 0.000000 -0.000000 0.000000 0.000000 -0.000000 0.000005 0.000000 0.000001 -57.840521 3.631066 -43.857317 67.973790 9.675542 -6.462426 -7.280531 0.607384 27.657333 -0.000000 0.000003 0.000000 -0.000000 0.000003 0.000000 0.000000 0.000001 -0.000001 15.218481 1.999002 0.187725 4.018250 0.706580 1.053215 4.011697 0.742049 1.040027 6.117067 -8.775920 0.380547 3.176685 -49.059466 16.903946 0.000001 0.000000 0.000000 0.000001 0.000000 0.000000 0.000001 0.000000 0.000000 0.963926 -6.339919 5.094873 14.974044 -84.674511 -17.204280 0.000146 -78.718504 0.000161 41.455280 34.203764 18.420230 -8.772846 9.023690 -12.136763 7.931288 22.633451 3.708731 -0.000002 0.000001 -0.000001 -0.179442 -6.813998 -1.913489 0.779791 3.187831 -27.484741 -0.000000 -0.000000 0.000003 0.001005 0.117880 -0.976817 0.637221 2.897722 -24.799222 -0.000000 0.000001 0.000000 0.009341 0.359276 -2.978430 0.145244 1.409610 -11.765390 0.000001 0.000000 -0.000000 2.243689 16.473643 -7.119986 0.032502 -3.279455 -6.945295 -0.000000 0.000001 -0.000002 0.000002 -0.000000 0.000004 0.544302 18.879299 9.999006 -52.476087 52.936025 43.025213 -0.000006 12.920586 0.000001 -19.864903 -21.088491 34.616065 -3.168558 2.531737 7.584461 14.911749 -26.743729 3.409161 0.000002 -0.000002 0.000000 0.001044 -0.120965 0.992669 2.550668 -5.384811 50.666295 -0.000004 -0.000004 0.000001 0.017306 -0.491268 4.034584 2.516141 -5.356467 50.297390 0.000006 0.000002 0.000000 0.705751 -5.882840 7.144296 2.423322 -5.278371 49.296139 -0.000003 0.000002 0.000002 2.127761 -12.519771 9.549750 2.516143 -5.356468 50.297387 0.000004 0.000000 0.000000 -0.000000 0.000002 0.000000 -0.000000 -0.000000 -0.000000 -0.000000 -0.000000 -0.000000 -0.000000 -0.000000 -0.000000 -0.000000 -0.000000 -0.000000 -0.000000 -0.000000 -0.000000 -0.000000 0.000001 -0.000001 -0.000000 -0.000000 -0.000000 -0.000000 -0.000000 -0.000000 -0.000000 0.000001 -0.000001 -0.000001 0.000000 0.000001 -0.000001 0.000000 0.000001 0.000000 0.000001 -0.000000 
-5.116395 59.158699 51.386993 1.216933 57.191626 2.498394 0.000000 0.000001 -0.000000 -51.756472 6.227209 28.507958 89.724801 -9.756276 2.225383 -36.883715 3.611396 -12.081210 0.000000 -0.000000 0.000000 0.000000 -0.000000 0.000000 0.000004 0.000001 -0.000002 -58.975398 4.555580 -43.479243 70.336817 9.452811 -6.328954 -8.502644 0.689940 26.708218 0.000000 0.000002 0.000000 0.000000 0.000002 0.000000 0.000000 -0.000000 -0.000002 15.307776 1.350891 0.132504 4.031409 0.490955 0.788577 4.028113 0.516864 0.779330 6.014382 -8.636710 0.342793 2.945188 -48.373859 16.829665 0.000000 0.000000 -0.000000 0.000000 0.000000 -0.000000 0.000000 0.000000 -0.000000 1.162181 -8.451255 3.355622 2.671217 -84.864732 -32.929585 -0.000027 -75.027770 0.000013 39.490132 29.995182 25.688726 -8.264337 9.154935 -12.096352 7.524507 21.856303 3.718859 0.000000 0.000001 -0.000001 -0.148736 -6.257925 -1.732887 0.673126 2.974115 -25.500334 -0.000000 0.000000 -0.000002 0.001006 0.117888 -0.976819 0.607036 2.831569 -24.195245 0.000001 -0.000000 -0.000001 0.009340 0.359273 -2.978433 0.154879 1.455104 -12.150893 0.000000 -0.000001 0.000001 2.271472 16.111726 -7.434233 0.050181 -3.145510 -8.063946 0.000000 0.000000 -0.000000 0.000001 0.000001 0.000003 0.706778 17.786839 8.744093 -48.687368 55.384399 38.310873 0.000016 20.241088 -0.000010 -17.108196 -19.062303 34.685463 -3.168532 2.531736 7.584451 15.140958 -27.026131 3.400066 0.000004 0.000002 -0.000001 0.001055 -0.120954 0.992662 2.235123 -5.111129 47.217579 0.000000 0.000001 0.000000 0.001057 -0.120960 0.992665 2.189323 -5.068525 46.701466 0.000003 0.000003 0.000006 0.182992 -5.590986 1.589995 2.101689 -4.984802 45.701141 -0.000003 -0.000004 0.000003 0.731088 -12.636581 2.642687 2.189332 -5.068540 46.701466 0.000002 0.000001 0.000000 -0.000001 0.000001 0.000001 0.000001 -0.000001 -0.000000 0.000001 -0.000001 -0.000000 0.000001 -0.000001 -0.000000 0.000001 -0.000001 -0.000000 0.000001 -0.000001 -0.000001 0.000001 -0.000003 0.000001 0.000001 -0.000001 -0.000000 0.000001 -0.000001 -0.000001 0.000001 -0.000003 0.000001 0.000000 -0.000001 -0.000001 0.000000 -0.000001 -0.000001 0.000000 0.000001 -0.000000 
